<mxfile host="65bd71144e">
    <diagram id="FSZ1kesDSIXPtyk0p3CQ" name="Страница 1">
        <mxGraphModel dx="1216" dy="862" grid="1" gridSize="10" guides="1" tooltips="1" connect="1" arrows="1" fold="1" page="1" pageScale="1" pageWidth="3300" pageHeight="4681" math="1" shadow="0">
            <root>
                <mxCell id="0"/>
                <mxCell id="1" parent="0"/>
                <mxCell id="2" value="Raspberri_Pi_Pico&lt;br&gt;RP2040" style="whiteSpace=wrap;html=1;" parent="1" vertex="1">
                    <mxGeometry x="1760" y="2080" width="120" height="800" as="geometry"/>
                </mxCell>
                <mxCell id="3" value="GND" style="whiteSpace=wrap;html=1;aspect=fixed;" parent="1" vertex="1">
                    <mxGeometry x="1720" y="2160" width="40" height="40" as="geometry"/>
                </mxCell>
                <mxCell id="8" value="GP1" style="whiteSpace=wrap;html=1;aspect=fixed;" parent="1" vertex="1">
                    <mxGeometry x="1720" y="2120" width="40" height="40" as="geometry"/>
                </mxCell>
                <mxCell id="9" value="GP0" style="whiteSpace=wrap;html=1;aspect=fixed;" parent="1" vertex="1">
                    <mxGeometry x="1720" y="2080" width="40" height="40" as="geometry"/>
                </mxCell>
                <mxCell id="10" value="GP2" style="whiteSpace=wrap;html=1;aspect=fixed;" parent="1" vertex="1">
                    <mxGeometry x="1720" y="2200" width="40" height="40" as="geometry"/>
                </mxCell>
                <mxCell id="13" value="GP3" style="whiteSpace=wrap;html=1;aspect=fixed;" parent="1" vertex="1">
                    <mxGeometry x="1720" y="2240" width="40" height="40" as="geometry"/>
                </mxCell>
                <mxCell id="14" value="GP4" style="whiteSpace=wrap;html=1;aspect=fixed;" parent="1" vertex="1">
                    <mxGeometry x="1720" y="2280" width="40" height="40" as="geometry"/>
                </mxCell>
                <mxCell id="15" value="GP5" style="whiteSpace=wrap;html=1;aspect=fixed;" parent="1" vertex="1">
                    <mxGeometry x="1720" y="2320" width="40" height="40" as="geometry"/>
                </mxCell>
                <mxCell id="16" value="GND" style="whiteSpace=wrap;html=1;aspect=fixed;" parent="1" vertex="1">
                    <mxGeometry x="1720" y="2360" width="40" height="40" as="geometry"/>
                </mxCell>
                <mxCell id="27" value="GP6" style="whiteSpace=wrap;html=1;aspect=fixed;" parent="1" vertex="1">
                    <mxGeometry x="1720" y="2400" width="40" height="40" as="geometry"/>
                </mxCell>
                <mxCell id="28" value="GP7" style="whiteSpace=wrap;html=1;aspect=fixed;" parent="1" vertex="1">
                    <mxGeometry x="1720" y="2440" width="40" height="40" as="geometry"/>
                </mxCell>
                <mxCell id="29" value="GP8" style="whiteSpace=wrap;html=1;aspect=fixed;" parent="1" vertex="1">
                    <mxGeometry x="1720" y="2480" width="40" height="40" as="geometry"/>
                </mxCell>
                <mxCell id="30" value="GP9" style="whiteSpace=wrap;html=1;aspect=fixed;" parent="1" vertex="1">
                    <mxGeometry x="1720" y="2520" width="40" height="40" as="geometry"/>
                </mxCell>
                <mxCell id="31" value="GND" style="whiteSpace=wrap;html=1;aspect=fixed;" parent="1" vertex="1">
                    <mxGeometry x="1720" y="2560" width="40" height="40" as="geometry"/>
                </mxCell>
                <mxCell id="64" value="GP10" style="whiteSpace=wrap;html=1;aspect=fixed;" parent="1" vertex="1">
                    <mxGeometry x="1720" y="2600" width="40" height="40" as="geometry"/>
                </mxCell>
                <mxCell id="65" value="GP11" style="whiteSpace=wrap;html=1;aspect=fixed;" parent="1" vertex="1">
                    <mxGeometry x="1720" y="2640" width="40" height="40" as="geometry"/>
                </mxCell>
                <mxCell id="68" value="GP12" style="whiteSpace=wrap;html=1;aspect=fixed;" parent="1" vertex="1">
                    <mxGeometry x="1720" y="2680" width="40" height="40" as="geometry"/>
                </mxCell>
                <mxCell id="69" value="GP13" style="whiteSpace=wrap;html=1;aspect=fixed;" parent="1" vertex="1">
                    <mxGeometry x="1720" y="2720" width="40" height="40" as="geometry"/>
                </mxCell>
                <mxCell id="70" value="GND" style="whiteSpace=wrap;html=1;aspect=fixed;" parent="1" vertex="1">
                    <mxGeometry x="1720" y="2760" width="40" height="40" as="geometry"/>
                </mxCell>
                <mxCell id="71" value="GP14" style="whiteSpace=wrap;html=1;aspect=fixed;" parent="1" vertex="1">
                    <mxGeometry x="1720" y="2800" width="40" height="40" as="geometry"/>
                </mxCell>
                <mxCell id="72" value="GP15" style="whiteSpace=wrap;html=1;aspect=fixed;" parent="1" vertex="1">
                    <mxGeometry x="1720" y="2840" width="40" height="40" as="geometry"/>
                </mxCell>
                <mxCell id="73" value="GND" style="whiteSpace=wrap;html=1;aspect=fixed;" parent="1" vertex="1">
                    <mxGeometry x="1880" y="2160" width="40" height="40" as="geometry"/>
                </mxCell>
                <mxCell id="74" value="VSYS" style="whiteSpace=wrap;html=1;aspect=fixed;" parent="1" vertex="1">
                    <mxGeometry x="1880" y="2120" width="40" height="40" as="geometry"/>
                </mxCell>
                <mxCell id="75" value="VBUS" style="whiteSpace=wrap;html=1;aspect=fixed;" parent="1" vertex="1">
                    <mxGeometry x="1880" y="2080" width="40" height="40" as="geometry"/>
                </mxCell>
                <mxCell id="76" value="3V3" style="whiteSpace=wrap;html=1;aspect=fixed;" parent="1" vertex="1">
                    <mxGeometry x="1880" y="2200" width="40" height="40" as="geometry"/>
                </mxCell>
                <mxCell id="77" value="3.3V" style="whiteSpace=wrap;html=1;aspect=fixed;" parent="1" vertex="1">
                    <mxGeometry x="1880" y="2240" width="40" height="40" as="geometry"/>
                </mxCell>
                <mxCell id="78" value="ADC&lt;br&gt;FREE" style="whiteSpace=wrap;html=1;aspect=fixed;" parent="1" vertex="1">
                    <mxGeometry x="1880" y="2280" width="40" height="40" as="geometry"/>
                </mxCell>
                <mxCell id="79" value="GP28" style="whiteSpace=wrap;html=1;aspect=fixed;" parent="1" vertex="1">
                    <mxGeometry x="1880" y="2320" width="40" height="40" as="geometry"/>
                </mxCell>
                <mxCell id="80" value="AGND" style="whiteSpace=wrap;html=1;aspect=fixed;" parent="1" vertex="1">
                    <mxGeometry x="1880" y="2360" width="40" height="40" as="geometry"/>
                </mxCell>
                <mxCell id="81" value="GP27" style="whiteSpace=wrap;html=1;aspect=fixed;" parent="1" vertex="1">
                    <mxGeometry x="1880" y="2400" width="40" height="40" as="geometry"/>
                </mxCell>
                <mxCell id="82" value="GP26" style="whiteSpace=wrap;html=1;aspect=fixed;" parent="1" vertex="1">
                    <mxGeometry x="1880" y="2440" width="40" height="40" as="geometry"/>
                </mxCell>
                <mxCell id="83" value="RUN" style="whiteSpace=wrap;html=1;aspect=fixed;" parent="1" vertex="1">
                    <mxGeometry x="1880" y="2480" width="40" height="40" as="geometry"/>
                </mxCell>
                <mxCell id="309" style="edgeStyle=none;html=1;entryX=0;entryY=0.5;entryDx=0;entryDy=0;strokeWidth=1;" parent="1" source="84" target="304" edge="1">
                    <mxGeometry relative="1" as="geometry"/>
                </mxCell>
                <mxCell id="84" value="GP22" style="whiteSpace=wrap;html=1;aspect=fixed;" parent="1" vertex="1">
                    <mxGeometry x="1880" y="2520" width="40" height="40" as="geometry"/>
                </mxCell>
                <mxCell id="85" value="GND" style="whiteSpace=wrap;html=1;aspect=fixed;" parent="1" vertex="1">
                    <mxGeometry x="1880" y="2560" width="40" height="40" as="geometry"/>
                </mxCell>
                <mxCell id="310" style="edgeStyle=none;html=1;entryX=0;entryY=0.5;entryDx=0;entryDy=0;strokeWidth=1;" parent="1" source="86" target="305" edge="1">
                    <mxGeometry relative="1" as="geometry"/>
                </mxCell>
                <mxCell id="86" value="GP21" style="whiteSpace=wrap;html=1;aspect=fixed;" parent="1" vertex="1">
                    <mxGeometry x="1880" y="2600" width="40" height="40" as="geometry"/>
                </mxCell>
                <mxCell id="311" style="edgeStyle=none;html=1;entryX=0;entryY=0.5;entryDx=0;entryDy=0;strokeWidth=1;" parent="1" source="87" target="306" edge="1">
                    <mxGeometry relative="1" as="geometry"/>
                </mxCell>
                <mxCell id="87" value="GP20" style="whiteSpace=wrap;html=1;aspect=fixed;" parent="1" vertex="1">
                    <mxGeometry x="1880" y="2640" width="40" height="40" as="geometry"/>
                </mxCell>
                <mxCell id="312" style="edgeStyle=none;html=1;entryX=0;entryY=0.5;entryDx=0;entryDy=0;strokeWidth=1;" parent="1" source="88" target="307" edge="1">
                    <mxGeometry relative="1" as="geometry"/>
                </mxCell>
                <mxCell id="88" value="GP19" style="whiteSpace=wrap;html=1;aspect=fixed;" parent="1" vertex="1">
                    <mxGeometry x="1880" y="2680" width="40" height="40" as="geometry"/>
                </mxCell>
                <mxCell id="313" style="edgeStyle=none;html=1;entryX=0;entryY=0.5;entryDx=0;entryDy=0;strokeWidth=1;" parent="1" source="89" target="308" edge="1">
                    <mxGeometry relative="1" as="geometry"/>
                </mxCell>
                <mxCell id="89" value="GP18" style="whiteSpace=wrap;html=1;aspect=fixed;" parent="1" vertex="1">
                    <mxGeometry x="1880" y="2720" width="40" height="40" as="geometry"/>
                </mxCell>
                <mxCell id="90" value="GND" style="whiteSpace=wrap;html=1;aspect=fixed;" parent="1" vertex="1">
                    <mxGeometry x="1880" y="2760" width="40" height="40" as="geometry"/>
                </mxCell>
                <mxCell id="91" value="GP17" style="whiteSpace=wrap;html=1;aspect=fixed;" parent="1" vertex="1">
                    <mxGeometry x="1880" y="2800" width="40" height="40" as="geometry"/>
                </mxCell>
                <mxCell id="92" value="GP16" style="whiteSpace=wrap;html=1;aspect=fixed;" parent="1" vertex="1">
                    <mxGeometry x="1880" y="2840" width="40" height="40" as="geometry"/>
                </mxCell>
                <mxCell id="170" value="CS1237" style="rounded=0;whiteSpace=wrap;html=1;" parent="1" vertex="1">
                    <mxGeometry x="1360" y="2200" width="120" height="160" as="geometry"/>
                </mxCell>
                <mxCell id="191" style="edgeStyle=none;html=1;exitX=0;exitY=0.25;exitDx=0;exitDy=0;" parent="1" source="171" edge="1">
                    <mxGeometry relative="1" as="geometry">
                        <mxPoint x="1370" y="2380" as="targetPoint"/>
                    </mxGeometry>
                </mxCell>
                <mxCell id="171" value="AINP" style="whiteSpace=wrap;html=1;aspect=fixed;" parent="1" vertex="1">
                    <mxGeometry x="1360" y="2360" width="40" height="40" as="geometry"/>
                </mxCell>
                <mxCell id="249" style="edgeStyle=none;html=1;entryX=0;entryY=0.5;entryDx=0;entryDy=0;" parent="1" source="172" target="16" edge="1">
                    <mxGeometry relative="1" as="geometry"/>
                </mxCell>
                <mxCell id="172" value="GND" style="whiteSpace=wrap;html=1;aspect=fixed;" parent="1" vertex="1">
                    <mxGeometry x="1440" y="2360" width="40" height="40" as="geometry"/>
                </mxCell>
                <mxCell id="173" value="AINN" style="whiteSpace=wrap;html=1;aspect=fixed;" parent="1" vertex="1">
                    <mxGeometry x="1400" y="2360" width="40" height="40" as="geometry"/>
                </mxCell>
                <mxCell id="251" style="edgeStyle=none;html=1;entryX=0;entryY=0.5;entryDx=0;entryDy=0;" parent="1" source="174" target="247" edge="1">
                    <mxGeometry relative="1" as="geometry">
                        <Array as="points">
                            <mxPoint x="1420" y="2120"/>
                            <mxPoint x="1640" y="2120"/>
                            <mxPoint x="1640" y="2300"/>
                        </Array>
                    </mxGeometry>
                </mxCell>
                <mxCell id="174" value="DOUT" style="whiteSpace=wrap;html=1;aspect=fixed;" parent="1" vertex="1">
                    <mxGeometry x="1400" y="2160" width="40" height="40" as="geometry"/>
                </mxCell>
                <mxCell id="175" value="SCLK" style="whiteSpace=wrap;html=1;aspect=fixed;" parent="1" vertex="1">
                    <mxGeometry x="1440" y="2160" width="40" height="40" as="geometry"/>
                </mxCell>
                <mxCell id="176" value="VDD" style="whiteSpace=wrap;html=1;aspect=fixed;" parent="1" vertex="1">
                    <mxGeometry x="1360" y="2160" width="40" height="40" as="geometry"/>
                </mxCell>
                <mxCell id="179" value="HG-302C" style="whiteSpace=wrap;html=1;aspect=fixed;" parent="1" vertex="1">
                    <mxGeometry x="1360" y="2480" width="80" height="80" as="geometry"/>
                </mxCell>
                <mxCell id="184" style="edgeStyle=none;html=1;entryX=0.5;entryY=1;entryDx=0;entryDy=0;" parent="1" source="180" target="171" edge="1">
                    <mxGeometry relative="1" as="geometry"/>
                </mxCell>
                <mxCell id="180" value="INT1" style="whiteSpace=wrap;html=1;aspect=fixed;" parent="1" vertex="1">
                    <mxGeometry x="1360" y="2440" width="40" height="40" as="geometry"/>
                </mxCell>
                <mxCell id="181" value="INT3" style="whiteSpace=wrap;html=1;aspect=fixed;" parent="1" vertex="1">
                    <mxGeometry x="1360" y="2560" width="40" height="40" as="geometry"/>
                </mxCell>
                <mxCell id="196" style="edgeStyle=none;html=1;exitX=1;exitY=0.5;exitDx=0;exitDy=0;entryX=0.5;entryY=1;entryDx=0;entryDy=0;" parent="1" source="182" target="172" edge="1">
                    <mxGeometry relative="1" as="geometry">
                        <Array as="points">
                            <mxPoint x="1460" y="2580"/>
                        </Array>
                    </mxGeometry>
                </mxCell>
                <mxCell id="182" value="OUT2" style="whiteSpace=wrap;html=1;aspect=fixed;" parent="1" vertex="1">
                    <mxGeometry x="1400" y="2560" width="40" height="40" as="geometry"/>
                </mxCell>
                <mxCell id="185" style="edgeStyle=none;html=1;entryX=0.5;entryY=1;entryDx=0;entryDy=0;" parent="1" source="183" target="173" edge="1">
                    <mxGeometry relative="1" as="geometry"/>
                </mxCell>
                <mxCell id="183" value="OUT4" style="whiteSpace=wrap;html=1;aspect=fixed;" parent="1" vertex="1">
                    <mxGeometry x="1400" y="2440" width="40" height="40" as="geometry"/>
                </mxCell>
                <mxCell id="197" value="CS1237" style="rounded=0;whiteSpace=wrap;html=1;" parent="1" vertex="1">
                    <mxGeometry x="1360" y="2720" width="120" height="160" as="geometry"/>
                </mxCell>
                <mxCell id="198" style="edgeStyle=none;html=1;exitX=0;exitY=0.25;exitDx=0;exitDy=0;" parent="1" source="199" edge="1">
                    <mxGeometry relative="1" as="geometry">
                        <mxPoint x="1370" y="2900" as="targetPoint"/>
                    </mxGeometry>
                </mxCell>
                <mxCell id="199" value="AINP" style="whiteSpace=wrap;html=1;aspect=fixed;" parent="1" vertex="1">
                    <mxGeometry x="1360" y="2880" width="40" height="40" as="geometry"/>
                </mxCell>
                <mxCell id="332" style="edgeStyle=none;html=1;entryX=0;entryY=0.5;entryDx=0;entryDy=0;" edge="1" parent="1" source="200" target="70">
                    <mxGeometry relative="1" as="geometry">
                        <mxPoint x="1690" y="2789.6" as="targetPoint"/>
                        <Array as="points">
                            <mxPoint x="1680" y="2900"/>
                            <mxPoint x="1680" y="2780"/>
                        </Array>
                    </mxGeometry>
                </mxCell>
                <mxCell id="200" value="GND" style="whiteSpace=wrap;html=1;aspect=fixed;" parent="1" vertex="1">
                    <mxGeometry x="1440" y="2880" width="40" height="40" as="geometry"/>
                </mxCell>
                <mxCell id="201" value="AINN" style="whiteSpace=wrap;html=1;aspect=fixed;" parent="1" vertex="1">
                    <mxGeometry x="1400" y="2880" width="40" height="40" as="geometry"/>
                </mxCell>
                <mxCell id="327" style="edgeStyle=none;html=1;entryX=0;entryY=0.5;entryDx=0;entryDy=0;" edge="1" parent="1" source="202" target="254">
                    <mxGeometry relative="1" as="geometry">
                        <Array as="points">
                            <mxPoint x="1420" y="2640"/>
                            <mxPoint x="1560" y="2640"/>
                            <mxPoint x="1560" y="2500"/>
                        </Array>
                    </mxGeometry>
                </mxCell>
                <mxCell id="202" value="DOUT" style="whiteSpace=wrap;html=1;aspect=fixed;" parent="1" vertex="1">
                    <mxGeometry x="1400" y="2680" width="40" height="40" as="geometry"/>
                </mxCell>
                <mxCell id="325" style="edgeStyle=none;html=1;entryX=0;entryY=0.5;entryDx=0;entryDy=0;" edge="1" parent="1" source="203" target="252">
                    <mxGeometry relative="1" as="geometry">
                        <Array as="points">
                            <mxPoint x="1460" y="2600"/>
                            <mxPoint x="1520" y="2600"/>
                            <mxPoint x="1520" y="2420"/>
                        </Array>
                    </mxGeometry>
                </mxCell>
                <mxCell id="203" value="SCLK" style="whiteSpace=wrap;html=1;aspect=fixed;" parent="1" vertex="1">
                    <mxGeometry x="1440" y="2680" width="40" height="40" as="geometry"/>
                </mxCell>
                <mxCell id="205" value="VDD" style="whiteSpace=wrap;html=1;aspect=fixed;" parent="1" vertex="1">
                    <mxGeometry x="1360" y="2680" width="40" height="40" as="geometry"/>
                </mxCell>
                <mxCell id="208" value="HG-302C" style="whiteSpace=wrap;html=1;aspect=fixed;" parent="1" vertex="1">
                    <mxGeometry x="1360" y="3000" width="80" height="80" as="geometry"/>
                </mxCell>
                <mxCell id="209" style="edgeStyle=none;html=1;entryX=0.5;entryY=1;entryDx=0;entryDy=0;" parent="1" source="210" target="199" edge="1">
                    <mxGeometry relative="1" as="geometry"/>
                </mxCell>
                <mxCell id="210" value="INT1" style="whiteSpace=wrap;html=1;aspect=fixed;" parent="1" vertex="1">
                    <mxGeometry x="1360" y="2960" width="40" height="40" as="geometry"/>
                </mxCell>
                <mxCell id="212" value="INT3" style="whiteSpace=wrap;html=1;aspect=fixed;" parent="1" vertex="1">
                    <mxGeometry x="1360" y="3080" width="40" height="40" as="geometry"/>
                </mxCell>
                <mxCell id="213" style="edgeStyle=none;html=1;exitX=1;exitY=0.5;exitDx=0;exitDy=0;entryX=0.5;entryY=1;entryDx=0;entryDy=0;" parent="1" source="214" target="200" edge="1">
                    <mxGeometry relative="1" as="geometry">
                        <Array as="points">
                            <mxPoint x="1460" y="3100"/>
                        </Array>
                    </mxGeometry>
                </mxCell>
                <mxCell id="214" value="OUT2" style="whiteSpace=wrap;html=1;aspect=fixed;" parent="1" vertex="1">
                    <mxGeometry x="1400" y="3080" width="40" height="40" as="geometry"/>
                </mxCell>
                <mxCell id="215" style="edgeStyle=none;html=1;entryX=0.5;entryY=1;entryDx=0;entryDy=0;" parent="1" source="216" target="201" edge="1">
                    <mxGeometry relative="1" as="geometry"/>
                </mxCell>
                <mxCell id="216" value="OUT4" style="whiteSpace=wrap;html=1;aspect=fixed;" parent="1" vertex="1">
                    <mxGeometry x="1400" y="2960" width="40" height="40" as="geometry"/>
                </mxCell>
                <mxCell id="321" style="edgeStyle=none;html=1;entryX=1;entryY=0.5;entryDx=0;entryDy=0;" edge="1" parent="1" source="245" target="175">
                    <mxGeometry relative="1" as="geometry">
                        <Array as="points">
                            <mxPoint x="1600" y="2220"/>
                            <mxPoint x="1600" y="2180"/>
                        </Array>
                    </mxGeometry>
                </mxCell>
                <mxCell id="245" value="SCLK" style="whiteSpace=wrap;html=1;aspect=fixed;fontStyle=1" parent="1" vertex="1">
                    <mxGeometry x="1680" y="2200" width="40" height="40" as="geometry"/>
                </mxCell>
                <mxCell id="246" value="MOSI" style="whiteSpace=wrap;html=1;aspect=fixed;fontStyle=1" parent="1" vertex="1">
                    <mxGeometry x="1680" y="2240" width="40" height="40" as="geometry"/>
                </mxCell>
                <mxCell id="247" value="MISO" style="whiteSpace=wrap;html=1;aspect=fixed;fontStyle=1" parent="1" vertex="1">
                    <mxGeometry x="1680" y="2280" width="40" height="40" as="geometry"/>
                </mxCell>
                <mxCell id="248" value="SS" style="whiteSpace=wrap;html=1;aspect=fixed;fontStyle=1" parent="1" vertex="1">
                    <mxGeometry x="1680" y="2321" width="40" height="40" as="geometry"/>
                </mxCell>
                <mxCell id="252" value="SCLK" style="whiteSpace=wrap;html=1;aspect=fixed;" parent="1" vertex="1">
                    <mxGeometry x="1680" y="2400" width="40" height="40" as="geometry"/>
                </mxCell>
                <mxCell id="253" value="MOSI" style="whiteSpace=wrap;html=1;aspect=fixed;" parent="1" vertex="1">
                    <mxGeometry x="1680" y="2440" width="40" height="40" as="geometry"/>
                </mxCell>
                <mxCell id="254" value="MISO" style="whiteSpace=wrap;html=1;aspect=fixed;" parent="1" vertex="1">
                    <mxGeometry x="1680" y="2480" width="40" height="40" as="geometry"/>
                </mxCell>
                <mxCell id="255" value="SS" style="whiteSpace=wrap;html=1;aspect=fixed;" parent="1" vertex="1">
                    <mxGeometry x="1680" y="2521" width="40" height="40" as="geometry"/>
                </mxCell>
                <mxCell id="260" value="SCLK" style="whiteSpace=wrap;html=1;aspect=fixed;" parent="1" vertex="1">
                    <mxGeometry x="1680" y="2600" width="40" height="40" as="geometry"/>
                </mxCell>
                <mxCell id="261" value="MOSI" style="whiteSpace=wrap;html=1;aspect=fixed;" parent="1" vertex="1">
                    <mxGeometry x="1680" y="2640" width="40" height="40" as="geometry"/>
                </mxCell>
                <mxCell id="262" value="MISO" style="whiteSpace=wrap;html=1;aspect=fixed;" parent="1" vertex="1">
                    <mxGeometry x="1680" y="2680" width="40" height="40" as="geometry"/>
                </mxCell>
                <mxCell id="263" value="SS" style="whiteSpace=wrap;html=1;aspect=fixed;" parent="1" vertex="1">
                    <mxGeometry x="1680" y="2721" width="40" height="40" as="geometry"/>
                </mxCell>
                <mxCell id="265" value="CS1237" style="rounded=0;whiteSpace=wrap;html=1;" parent="1" vertex="1">
                    <mxGeometry x="1360" y="3240" width="120" height="160" as="geometry"/>
                </mxCell>
                <mxCell id="266" style="edgeStyle=none;html=1;exitX=0;exitY=0.25;exitDx=0;exitDy=0;" parent="1" source="267" edge="1">
                    <mxGeometry relative="1" as="geometry">
                        <mxPoint x="1370.0000000000005" y="3420" as="targetPoint"/>
                    </mxGeometry>
                </mxCell>
                <mxCell id="267" value="AINP" style="whiteSpace=wrap;html=1;aspect=fixed;" parent="1" vertex="1">
                    <mxGeometry x="1360" y="3400" width="40" height="40" as="geometry"/>
                </mxCell>
                <mxCell id="333" style="edgeStyle=none;html=1;exitX=1;exitY=0.5;exitDx=0;exitDy=0;entryX=0;entryY=0.5;entryDx=0;entryDy=0;" edge="1" parent="1" source="268" target="70">
                    <mxGeometry relative="1" as="geometry">
                        <Array as="points">
                            <mxPoint x="1680" y="3420"/>
                            <mxPoint x="1680" y="2780"/>
                        </Array>
                    </mxGeometry>
                </mxCell>
                <mxCell id="268" value="GND" style="whiteSpace=wrap;html=1;aspect=fixed;" parent="1" vertex="1">
                    <mxGeometry x="1440" y="3400" width="40" height="40" as="geometry"/>
                </mxCell>
                <mxCell id="269" value="AINN" style="whiteSpace=wrap;html=1;aspect=fixed;" parent="1" vertex="1">
                    <mxGeometry x="1400" y="3400" width="40" height="40" as="geometry"/>
                </mxCell>
                <mxCell id="329" style="edgeStyle=none;html=1;entryX=0;entryY=0.5;entryDx=0;entryDy=0;" edge="1" parent="1" source="270" target="262">
                    <mxGeometry relative="1" as="geometry">
                        <Array as="points">
                            <mxPoint x="1420" y="3160"/>
                            <mxPoint x="1560" y="3160"/>
                            <mxPoint x="1560" y="2700"/>
                        </Array>
                    </mxGeometry>
                </mxCell>
                <mxCell id="270" value="DOUT" style="whiteSpace=wrap;html=1;aspect=fixed;" parent="1" vertex="1">
                    <mxGeometry x="1400" y="3200" width="40" height="40" as="geometry"/>
                </mxCell>
                <mxCell id="330" style="edgeStyle=none;html=1;entryX=0;entryY=0.5;entryDx=0;entryDy=0;" edge="1" parent="1" source="271" target="260">
                    <mxGeometry relative="1" as="geometry">
                        <Array as="points">
                            <mxPoint x="1460" y="3120"/>
                            <mxPoint x="1520" y="3120"/>
                            <mxPoint x="1520" y="2680"/>
                            <mxPoint x="1600" y="2680"/>
                            <mxPoint x="1600" y="2620"/>
                        </Array>
                    </mxGeometry>
                </mxCell>
                <mxCell id="271" value="SCLK" style="whiteSpace=wrap;html=1;aspect=fixed;" parent="1" vertex="1">
                    <mxGeometry x="1440" y="3200" width="40" height="40" as="geometry"/>
                </mxCell>
                <mxCell id="272" value="VDD" style="whiteSpace=wrap;html=1;aspect=fixed;" parent="1" vertex="1">
                    <mxGeometry x="1360" y="3200" width="40" height="40" as="geometry"/>
                </mxCell>
                <mxCell id="273" value="HG-302C" style="whiteSpace=wrap;html=1;aspect=fixed;" parent="1" vertex="1">
                    <mxGeometry x="1360" y="3520" width="80" height="80" as="geometry"/>
                </mxCell>
                <mxCell id="274" style="edgeStyle=none;html=1;entryX=0.5;entryY=1;entryDx=0;entryDy=0;" parent="1" source="275" target="267" edge="1">
                    <mxGeometry relative="1" as="geometry"/>
                </mxCell>
                <mxCell id="275" value="INT1" style="whiteSpace=wrap;html=1;aspect=fixed;" parent="1" vertex="1">
                    <mxGeometry x="1360" y="3480" width="40" height="40" as="geometry"/>
                </mxCell>
                <mxCell id="276" value="INT3" style="whiteSpace=wrap;html=1;aspect=fixed;" parent="1" vertex="1">
                    <mxGeometry x="1360" y="3600" width="40" height="40" as="geometry"/>
                </mxCell>
                <mxCell id="277" style="edgeStyle=none;html=1;exitX=1;exitY=0.5;exitDx=0;exitDy=0;entryX=0.5;entryY=1;entryDx=0;entryDy=0;" parent="1" source="278" target="268" edge="1">
                    <mxGeometry relative="1" as="geometry">
                        <Array as="points">
                            <mxPoint x="1460" y="3620"/>
                        </Array>
                    </mxGeometry>
                </mxCell>
                <mxCell id="278" value="OUT2" style="whiteSpace=wrap;html=1;aspect=fixed;" parent="1" vertex="1">
                    <mxGeometry x="1400" y="3600" width="40" height="40" as="geometry"/>
                </mxCell>
                <mxCell id="279" style="edgeStyle=none;html=1;entryX=0.5;entryY=1;entryDx=0;entryDy=0;" parent="1" source="280" target="269" edge="1">
                    <mxGeometry relative="1" as="geometry"/>
                </mxCell>
                <mxCell id="280" value="OUT4" style="whiteSpace=wrap;html=1;aspect=fixed;" parent="1" vertex="1">
                    <mxGeometry x="1400" y="3480" width="40" height="40" as="geometry"/>
                </mxCell>
                <mxCell id="288" value="" style="endArrow=none;html=1;fillColor=#60a917;strokeColor=#2D7600;strokeWidth=5;" parent="1" edge="1">
                    <mxGeometry width="50" height="50" relative="1" as="geometry">
                        <mxPoint x="960" y="2119" as="sourcePoint"/>
                        <mxPoint x="1160" y="2119" as="targetPoint"/>
                    </mxGeometry>
                </mxCell>
                <mxCell id="289" value="" style="endArrow=classic;html=1;strokeWidth=1;entryX=0;entryY=0.5;entryDx=0;entryDy=0;" parent="1" target="181" edge="1">
                    <mxGeometry width="50" height="50" relative="1" as="geometry">
                        <mxPoint x="1080" y="2120" as="sourcePoint"/>
                        <mxPoint x="1220" y="2540" as="targetPoint"/>
                        <Array as="points">
                            <mxPoint x="1080" y="2580"/>
                        </Array>
                    </mxGeometry>
                </mxCell>
                <mxCell id="290" value="" style="endArrow=classic;html=1;strokeWidth=1;entryX=0;entryY=0.5;entryDx=0;entryDy=0;" parent="1" target="212" edge="1">
                    <mxGeometry width="50" height="50" relative="1" as="geometry">
                        <mxPoint x="1040" y="2120" as="sourcePoint"/>
                        <mxPoint x="1270" y="2850" as="targetPoint"/>
                        <Array as="points">
                            <mxPoint x="1040" y="3100"/>
                        </Array>
                    </mxGeometry>
                </mxCell>
                <mxCell id="291" value="" style="endArrow=classic;html=1;strokeWidth=1;entryX=0;entryY=0.5;entryDx=0;entryDy=0;" parent="1" target="276" edge="1">
                    <mxGeometry width="50" height="50" relative="1" as="geometry">
                        <mxPoint x="1000" y="2120" as="sourcePoint"/>
                        <mxPoint x="1370" y="3110" as="targetPoint"/>
                        <Array as="points">
                            <mxPoint x="1000" y="3620"/>
                        </Array>
                    </mxGeometry>
                </mxCell>
                <mxCell id="292" value="+10 В" style="text;strokeColor=none;fillColor=none;html=1;fontSize=24;fontStyle=1;verticalAlign=middle;align=center;" parent="1" vertex="1">
                    <mxGeometry x="1010" y="2080" width="100" height="40" as="geometry"/>
                </mxCell>
                <mxCell id="293" value="" style="endArrow=none;html=1;fillColor=#60a917;strokeColor=#2D7600;strokeWidth=5;" parent="1" edge="1">
                    <mxGeometry width="50" height="50" relative="1" as="geometry">
                        <mxPoint x="1120" y="2239.3900000000003" as="sourcePoint"/>
                        <mxPoint x="1280" y="2240" as="targetPoint"/>
                    </mxGeometry>
                </mxCell>
                <mxCell id="297" style="edgeStyle=none;html=1;exitX=0.5;exitY=1;exitDx=0;exitDy=0;entryX=0.5;entryY=0;entryDx=0;entryDy=0;strokeWidth=1;" parent="1" source="294" target="295" edge="1">
                    <mxGeometry relative="1" as="geometry"/>
                </mxCell>
                <mxCell id="294" value="" style="rounded=0;whiteSpace=wrap;html=1;" parent="1" vertex="1">
                    <mxGeometry x="1110" y="2160" width="20" height="40" as="geometry"/>
                </mxCell>
                <mxCell id="298" style="edgeStyle=none;html=1;entryX=0.5;entryY=1;entryDx=0;entryDy=0;strokeWidth=1;" parent="1" source="295" target="182" edge="1">
                    <mxGeometry relative="1" as="geometry">
                        <Array as="points">
                            <mxPoint x="1120" y="2620"/>
                            <mxPoint x="1420" y="2620"/>
                        </Array>
                    </mxGeometry>
                </mxCell>
                <mxCell id="295" value="" style="rounded=0;whiteSpace=wrap;html=1;" parent="1" vertex="1">
                    <mxGeometry x="1110" y="2281" width="20" height="40" as="geometry"/>
                </mxCell>
                <mxCell id="296" value="" style="endArrow=classic;html=1;strokeWidth=1;" parent="1" target="294" edge="1">
                    <mxGeometry width="50" height="50" relative="1" as="geometry">
                        <mxPoint x="1120" y="2120" as="sourcePoint"/>
                        <mxPoint x="1130" y="2250" as="targetPoint"/>
                    </mxGeometry>
                </mxCell>
                <mxCell id="299" value="" style="endArrow=classic;html=1;strokeWidth=1;entryX=0;entryY=0.5;entryDx=0;entryDy=0;" parent="1" target="176" edge="1">
                    <mxGeometry width="50" height="50" relative="1" as="geometry">
                        <mxPoint x="1160" y="2240" as="sourcePoint"/>
                        <mxPoint x="1350" y="2180" as="targetPoint"/>
                        <Array as="points">
                            <mxPoint x="1160" y="2180"/>
                        </Array>
                    </mxGeometry>
                </mxCell>
                <mxCell id="301" value="" style="endArrow=classic;html=1;strokeWidth=1;entryX=0;entryY=0.5;entryDx=0;entryDy=0;" parent="1" target="205" edge="1">
                    <mxGeometry width="50" height="50" relative="1" as="geometry">
                        <mxPoint x="1240" y="2240" as="sourcePoint"/>
                        <mxPoint x="1140" y="2410" as="targetPoint"/>
                        <Array as="points">
                            <mxPoint x="1240" y="2700"/>
                        </Array>
                    </mxGeometry>
                </mxCell>
                <mxCell id="302" value="" style="endArrow=classic;html=1;strokeWidth=1;entryX=0;entryY=0.5;entryDx=0;entryDy=0;" parent="1" target="272" edge="1">
                    <mxGeometry width="50" height="50" relative="1" as="geometry">
                        <mxPoint x="1200" y="2240" as="sourcePoint"/>
                        <mxPoint x="1270" y="2960" as="targetPoint"/>
                        <Array as="points">
                            <mxPoint x="1200" y="3220"/>
                        </Array>
                    </mxGeometry>
                </mxCell>
                <mxCell id="303" value="+6 В" style="text;strokeColor=none;fillColor=none;html=1;fontSize=24;fontStyle=1;verticalAlign=middle;align=center;" parent="1" vertex="1">
                    <mxGeometry x="1170" y="2200" width="100" height="40" as="geometry"/>
                </mxCell>
                <mxCell id="304" value="SD_DAT3/CD" style="whiteSpace=wrap;html=1;" parent="1" vertex="1">
                    <mxGeometry x="2000" y="2520" width="80" height="39" as="geometry"/>
                </mxCell>
                <mxCell id="305" value="SD_DAT2" style="whiteSpace=wrap;html=1;" parent="1" vertex="1">
                    <mxGeometry x="2000" y="2600" width="80" height="40" as="geometry"/>
                </mxCell>
                <mxCell id="306" value="SD_DAT1" style="whiteSpace=wrap;html=1;" parent="1" vertex="1">
                    <mxGeometry x="2000" y="2640" width="80" height="40" as="geometry"/>
                </mxCell>
                <mxCell id="307" value="SD_DAT0" style="whiteSpace=wrap;html=1;" parent="1" vertex="1">
                    <mxGeometry x="2000" y="2680" width="80" height="40" as="geometry"/>
                </mxCell>
                <mxCell id="308" value="SD_CMD" style="whiteSpace=wrap;html=1;" parent="1" vertex="1">
                    <mxGeometry x="2000" y="2720" width="80" height="40" as="geometry"/>
                </mxCell>
                <mxCell id="314" value="" style="rounded=0;whiteSpace=wrap;html=1;strokeWidth=1;fillColor=none;strokeColor=default;dashed=1;" parent="1" vertex="1">
                    <mxGeometry x="2000" y="2520" width="80" height="240" as="geometry"/>
                </mxCell>
            </root>
        </mxGraphModel>
    </diagram>
</mxfile>